<svg width="202" height="169" viewBox="0 0 202 169" fill="none" xmlns="http://www.w3.org/2000/svg">
<g clip-path="url(#clip0_207_4135)">
<path opacity="0.2" d="M186.175 0H16.0576V169H186.175V0Z" fill="#FF640D"/>
<path opacity="0.5" d="M160.343 15.7788H41.6566V153.453H160.343V15.7788Z" fill="#FF640D"/>
<path d="M202 24.2749H138.468V145.65H202V24.2749Z" fill="url(#paint0_linear_207_4135)"/>
<path d="M63.5323 24.7373H0V146.112H63.5323V24.7373Z" fill="url(#paint1_linear_207_4135)"/>
<path d="M199.905 26.1245H140.562V143.107H199.905V26.1245Z" fill="#FF640D"/>
<path d="M2.09455 143.107H61.4379L61.4379 26.1245L2.09455 26.1245L2.09455 143.107Z" fill="#FF640D"/>
<path d="M51.6637 36.7593H11.8688V43.9262H51.6637V36.7593Z" fill="url(#paint2_linear_207_4135)"/>
<path d="M190.364 47.6252H150.569V54.7921H190.364V47.6252Z" fill="url(#paint3_linear_207_4135)"/>
<path d="M190.131 58.7222H150.336V65.8891H190.131V58.7222Z" fill="url(#paint4_linear_207_4135)"/>
<path d="M190.131 69.8193H150.336V76.9862H190.131V69.8193Z" fill="url(#paint5_linear_207_4135)"/>
<path d="M190.131 80.9165H150.336V88.0834H190.131V80.9165Z" fill="url(#paint6_linear_207_4135)"/>
<path d="M190.131 92.0137H150.336V99.1805H190.131V92.0137Z" fill="url(#paint7_linear_207_4135)"/>
<path d="M190.131 103.111H150.336V110.278H190.131V103.111Z" fill="url(#paint8_linear_207_4135)"/>
<path d="M190.131 114.208H150.336V121.375H190.131V114.208Z" fill="url(#paint9_linear_207_4135)"/>
<path d="M190.131 125.305H150.336V132.472H190.131V125.305Z" fill="url(#paint10_linear_207_4135)"/>
<path d="M190.131 36.7593H150.336V43.9262H190.131V36.7593Z" fill="url(#paint11_linear_207_4135)"/>
<path d="M51.6637 48.0874H11.8688V55.2543H51.6637V48.0874Z" fill="url(#paint12_linear_207_4135)"/>
<path d="M51.6637 58.9534H11.8688V66.1203H51.6637V58.9534Z" fill="url(#paint13_linear_207_4135)"/>
<path d="M51.6637 69.8193H11.8688V76.9862H51.6637V69.8193Z" fill="url(#paint14_linear_207_4135)"/>
<path d="M51.6637 80.9165H11.8688V88.0834H51.6637V80.9165Z" fill="url(#paint15_linear_207_4135)"/>
<path d="M51.6637 92.0137H11.8688V99.1805H51.6637V92.0137Z" fill="url(#paint16_linear_207_4135)"/>
<path d="M50.9654 37.6841H12.7994V43.2327H50.9654V37.6841Z" fill="white"/>
<path d="M50.8493 48.5498H12.6833V54.0984H50.8493V48.5498Z" fill="white"/>
<path d="M50.8493 59.647H12.6833V65.1955H50.8493V59.647Z" fill="white"/>
<path d="M50.8493 70.7441H12.6833V76.2927H50.8493V70.7441Z" fill="white"/>
<path d="M50.8493 81.8413H12.6833V87.3899H50.8493V81.8413Z" fill="white"/>
<path d="M50.8493 92.9385H12.6833V98.4871H50.8493V92.9385Z" fill="white"/>
<path d="M51.6637 103.111H11.8688V110.278H51.6637V103.111Z" fill="url(#paint17_linear_207_4135)"/>
<path d="M50.8493 104.036H12.6833V109.584H50.8493V104.036Z" fill="white"/>
<path d="M50.8493 104.036H12.6833V109.584H50.8493V104.036Z" fill="white"/>
<path d="M50.8493 115.133H12.6833V120.681H50.8493V115.133Z" fill="white"/>
<path d="M50.8493 126.23H12.6833V131.779H50.8493V126.23Z" fill="white"/>
<path d="M189.433 37.4529H151.267V43.0014H189.433V37.4529Z" fill="white"/>
<path d="M189.433 48.5498H151.267V54.0984H189.433V48.5498Z" fill="white"/>
<path d="M189.433 59.647H151.267V65.1955H189.433V59.647Z" fill="white"/>
<path d="M189.433 70.7441H151.267V76.2927H189.433V70.7441Z" fill="white"/>
<path d="M189.433 81.8413H151.267V87.3899H189.433V81.8413Z" fill="white"/>
<path d="M189.433 92.9385H151.267V98.4871H189.433V92.9385Z" fill="white"/>
<path d="M189.433 104.036H151.267V109.584H189.433V104.036Z" fill="white"/>
<path d="M189.433 115.133H151.267V120.681H189.433V115.133Z" fill="white"/>
<path d="M189.433 126.23H151.267V131.779H189.433V126.23Z" fill="white"/>
<path d="M171.048 149.118H30.7189V157.903H171.048V149.118Z" fill="url(#paint18_linear_207_4135)"/>
<path d="M170.117 150.042H31.8824V156.978H170.117V150.042Z" fill="#FF640D"/>
<path d="M171.281 11.5596H31.1843V20.576H171.281V11.5596Z" fill="url(#paint19_linear_207_4135)"/>
<path d="M170.117 12.2532H31.8824V19.1889H170.117V12.2532Z" fill="#FF640D"/>
<path opacity="0.5" d="M135.21 26.1245H67.2557V143.107H135.21V26.1245Z" fill="#263238"/>
<path d="M153.515 76.998C155.144 79.1665 152.705 81.7281 152.705 81.7281L153.115 81.8691C152.512 82.5327 150.131 85.5266 140.953 99.0697C129.201 116.409 113.364 120.734 113.364 120.734C111.44 119.241 109.251 118.119 106.911 117.426V115.789C109.901 114.913 112.634 113.331 114.875 111.178C117.116 109.025 118.799 106.365 119.78 103.425C121.181 100.67 121.91 97.6254 121.907 94.5384C121.907 83.4412 112.652 74.4387 101.237 74.4387C89.8224 74.4387 80.5671 83.4389 80.5671 94.5384C80.5643 97.6254 81.293 100.67 82.6942 103.425C83.6757 106.365 85.3588 109.025 87.5999 111.178C89.8409 113.331 92.5733 114.913 95.5635 115.789V117.426C93.2233 118.119 91.0345 119.241 89.1102 120.734C89.1102 120.734 73.2667 116.404 61.5144 99.0651C52.336 85.5219 49.9553 82.5257 49.3525 81.8645L49.7621 81.7235C49.7621 81.7235 47.3302 79.1619 48.9523 76.9933C50.5743 74.8248 38.2123 72.2632 39.6295 76.9933C41.0468 81.7235 42.8713 84.0886 42.8713 84.0886C42.8713 84.0886 68.7497 124.635 82.259 131.335C81.9398 132.708 81.779 134.114 81.7796 135.524V143.407H120.686V135.524C120.686 134.114 120.525 132.708 120.206 131.335C133.704 124.63 159.594 84.0909 159.594 84.0909C159.594 84.0909 161.418 81.7258 162.836 76.9957C164.253 72.2655 151.893 74.8294 153.515 76.998Z" fill="url(#paint20_linear_207_4135)"/>
<path d="M101.232 115.255C112.165 115.255 121.028 106.451 121.028 95.5901C121.028 84.7294 112.165 75.925 101.232 75.925C90.2999 75.925 81.4374 84.7294 81.4374 95.5901C81.4374 106.451 90.2999 115.255 101.232 115.255Z" fill="#263238"/>
<path d="M101.232 117.186C111.522 117.186 119.864 108.899 119.864 98.6768C119.864 88.4545 111.522 80.1677 101.232 80.1677C90.9425 80.1677 82.601 88.4545 82.601 98.6768C82.601 108.899 90.9425 117.186 101.232 117.186Z" fill="#F8C198"/>
<path d="M93.8578 96.9402C95.1444 96.9402 96.1874 95.9041 96.1874 94.626C96.1874 93.3479 95.1444 92.3118 93.8578 92.3118C92.5713 92.3118 91.5283 93.3479 91.5283 94.626C91.5283 95.9041 92.5713 96.9402 93.8578 96.9402Z" fill="#263238"/>
<path d="M108.996 96.9402C110.283 96.9402 111.326 95.9041 111.326 94.626C111.326 93.3479 110.283 92.3118 108.996 92.3118C107.71 92.3118 106.667 93.3479 106.667 94.626C106.667 95.9041 107.71 96.9402 108.996 96.9402Z" fill="#263238"/>
<path d="M106.666 107.156C106.666 108.544 104.234 110.821 101.232 110.821C98.2302 110.821 95.7983 108.544 95.7983 107.156C95.7983 105.769 98.2302 105.806 101.232 105.806C104.234 105.806 106.666 105.769 106.666 107.156Z" fill="white"/>
<path d="M94.4399 95.3984C94.8692 95.3984 95.2171 95.0527 95.2171 94.6262C95.2171 94.1997 94.8692 93.854 94.4399 93.854C94.0106 93.854 93.6626 94.1997 93.6626 94.6262C93.6626 95.0527 94.0106 95.3984 94.4399 95.3984Z" fill="white"/>
<path d="M109.771 95.3984C110.201 95.3984 110.549 95.0527 110.549 94.6262C110.549 94.1997 110.201 93.854 109.771 93.854C109.342 93.854 108.994 94.1997 108.994 94.6262C108.994 95.0527 109.342 95.3984 109.771 95.3984Z" fill="white"/>
<path d="M103.094 88.4024C101.959 88.4024 100.939 87.4222 100.818 86.3009C100.779 85.7372 100.914 85.175 101.205 84.6895C101.496 84.2041 101.93 83.8185 102.447 83.5844C102.553 83.53 102.67 83.5 102.79 83.4966C103.181 83.4966 103.374 83.959 103.499 84.3265C103.89 85.464 104.584 86.5737 105.673 87.1008C106.762 87.6279 108.284 87.3574 108.859 86.2986C107.318 85.6166 106.66 83.4758 107.556 82.0563C107.902 81.5083 108.442 81.0436 108.552 80.4056C108.752 79.2496 107.477 78.4081 106.348 78.0613C103.09 77.0602 91.7331 76.9493 91.1071 81.7788C90.4508 86.8743 99.5175 89.0775 103.094 88.4024Z" fill="#263238"/>
<path d="M84.5858 101.924C85.1836 101.689 85.126 100.134 84.4572 98.4499C83.7883 96.7657 82.7615 95.5903 82.1637 95.8246C81.5659 96.0588 81.6235 97.6141 82.2923 99.2983C82.9612 100.983 83.988 102.158 84.5858 101.924Z" fill="#F8C198"/>
<path d="M120.168 99.286C120.836 97.6017 120.894 96.0465 120.296 95.8122C119.698 95.5779 118.672 96.7533 118.003 98.4375C117.334 100.122 117.276 101.677 117.874 101.911C118.472 102.146 119.499 100.97 120.168 99.286Z" fill="#F8C198"/>
<path d="M112.848 121.222C112.848 121.222 128.014 116.992 139.271 100.025C150.527 83.0575 151.109 83.0112 151.109 83.0112L157.125 85.3717C157.125 85.3717 129.18 130.102 117.148 132.417C105.117 134.731 112.848 121.222 112.848 121.222Z" fill="#FF9800"/>
<path d="M150.529 83.0597C150.529 83.0597 152.857 80.5535 151.307 78.4358C149.757 76.3181 161.593 73.812 160.234 78.4358C158.875 83.0597 157.129 85.3716 157.129 85.3716L150.529 83.0597Z" fill="#F8C198"/>
<path d="M89.6177 121.222C89.6177 121.222 74.4514 116.992 63.1948 100.025C51.9382 83.0575 51.3564 83.0112 51.3564 83.0112L45.3406 85.3717C45.3406 85.3717 73.2878 130.102 85.3217 132.417C97.3556 134.731 89.6177 121.222 89.6177 121.222Z" fill="#FF9800"/>
<path d="M51.9359 83.0597C51.9359 83.0597 49.6087 80.5535 51.1586 78.4358C52.7085 76.3181 40.8724 73.812 42.2315 78.4358C43.5906 83.0597 45.336 85.3716 45.336 85.3716L51.9359 83.0597Z" fill="#F8C198"/>
<g opacity="0.2">
<path opacity="0.2" d="M107.583 79.245C107.472 79.8831 106.932 80.3455 106.587 80.8957C105.803 82.1395 106.21 83.9382 107.36 84.826C107.195 84.4098 107.127 83.9618 107.161 83.5157C107.195 83.0695 107.331 82.637 107.558 82.2505C107.905 81.7026 108.444 81.2379 108.554 80.5998C108.68 79.8762 108.226 79.2751 107.593 78.8428C107.609 78.9766 107.606 79.1121 107.583 79.245Z" fill="white"/>
<path opacity="0.2" d="M102.736 83.6932C102.662 83.5198 102.592 83.3441 102.531 83.1684C102.406 82.8008 102.213 82.3499 101.822 82.3384C101.702 82.3418 101.586 82.3719 101.48 82.4262C100.962 82.6603 100.528 83.0459 100.237 83.5313C99.9462 84.0168 99.8113 84.579 99.8505 85.1427C99.8938 85.4827 100.009 85.8099 100.188 86.1027C100.367 86.3955 100.607 86.6474 100.891 86.842C100.858 86.7277 100.835 86.6109 100.821 86.4929C100.782 85.9291 100.917 85.367 101.208 84.8815C101.499 84.396 101.932 84.0105 102.45 83.7764C102.54 83.733 102.637 83.7049 102.736 83.6932Z" fill="white"/>
<path opacity="0.2" d="M101.096 87.3553C98.2657 87.4732 93.6997 86.4005 91.4493 84.1187C93.1296 87.6697 100.072 89.1563 103.085 88.5852C102.674 88.5715 102.274 88.4507 101.925 88.2348C101.576 88.0189 101.29 87.7156 101.096 87.3553Z" fill="white"/>
<path opacity="0.2" d="M107.675 85.4502C106.995 86.2432 105.678 86.4096 104.708 85.9403C104.391 85.7851 104.1 85.5815 103.847 85.3369C104.223 86.1709 104.867 86.8573 105.678 87.2882C106.767 87.813 108.289 87.5448 108.864 86.4859C108.375 86.2631 107.961 85.9031 107.675 85.4502Z" fill="white"/>
</g>
<path opacity="0.2" d="M156.353 85.3717C156.353 85.3717 128.405 130.102 116.36 132.417C115.664 132.555 114.958 132.641 114.249 132.673C115.218 132.701 116.188 132.615 117.137 132.417C129.171 130.105 157.118 85.3717 157.118 85.3717L156.494 85.1521C156.408 85.2977 156.353 85.3717 156.353 85.3717Z" fill="white"/>
<path opacity="0.2" d="M46.1131 85.3717C46.1131 85.3717 74.0603 130.102 86.1058 132.417C86.8019 132.555 87.5075 132.641 88.2166 132.673C87.2471 132.701 86.2777 132.615 85.3285 132.417C73.2946 130.105 45.3474 85.3717 45.3474 85.3717L45.9711 85.1521C46.0572 85.2977 46.1131 85.3717 46.1131 85.3717Z" fill="white"/>
<path d="M101.232 117.186C103.679 117.186 106.102 117.665 108.362 118.595C110.623 119.525 112.677 120.888 114.407 122.607C116.137 124.326 117.509 126.366 118.446 128.612C119.382 130.857 119.864 133.264 119.864 135.695V143.407H82.601V135.695C82.601 133.264 83.0829 130.857 84.0192 128.612C84.9555 126.366 86.3279 124.326 88.058 122.607C89.7881 120.888 91.842 119.525 94.1025 118.595C96.3629 117.665 98.7857 117.186 101.232 117.186Z" fill="#FF9800"/>
<path opacity="0.2" d="M101.426 117.283C100.748 117.283 100.07 117.319 99.3962 117.392C99.629 117.392 99.8407 117.378 100.066 117.378C105.008 117.378 109.747 119.328 113.241 122.799C116.735 126.27 118.698 130.978 118.698 135.887V143.502H120.057V135.792C120.057 130.883 118.094 126.175 114.6 122.704C111.106 119.233 106.367 117.283 101.426 117.283Z" fill="white"/>
<path opacity="0.2" d="M101.039 117.283C101.717 117.283 102.395 117.319 103.069 117.392C102.836 117.392 102.624 117.378 102.398 117.378C97.457 117.378 92.718 119.328 89.2239 122.799C85.7299 126.27 83.7669 130.978 83.7669 135.887V143.502H82.4078V135.792C82.4078 130.883 84.3708 126.175 87.8649 122.704C91.3589 119.233 96.0979 117.283 101.039 117.283Z" fill="white"/>
<path d="M106.666 117.475C106.666 114.493 104.233 112.076 101.232 112.076C98.2312 112.076 95.7983 114.493 95.7983 117.475V119.692C95.7983 122.673 98.2312 125.09 101.232 125.09C104.233 125.09 106.666 122.673 106.666 119.692V117.475Z" fill="#F8C198"/>
</g>
<defs>
<linearGradient id="paint0_linear_207_4135" x1="170.234" y1="145.65" x2="170.234" y2="24.2749" gradientUnits="userSpaceOnUse">
<stop stop-color="#808080" stop-opacity="0.25"/>
<stop offset="0.54" stop-color="#808080" stop-opacity="0.12"/>
<stop offset="1" stop-color="#808080" stop-opacity="0.1"/>
</linearGradient>
<linearGradient id="paint1_linear_207_4135" x1="8672.15" y1="76733.6" x2="8672.15" y2="13011.8" gradientUnits="userSpaceOnUse">
<stop stop-color="#808080" stop-opacity="0.25"/>
<stop offset="0.54" stop-color="#808080" stop-opacity="0.12"/>
<stop offset="1" stop-color="#808080" stop-opacity="0.1"/>
</linearGradient>
<linearGradient id="paint2_linear_207_4135" x1="31.7662" y1="43.9262" x2="31.7662" y2="36.7593" gradientUnits="userSpaceOnUse">
<stop stop-opacity="0.12"/>
<stop offset="0.55" stop-opacity="0.09"/>
<stop offset="1" stop-opacity="0.02"/>
</linearGradient>
<linearGradient id="paint3_linear_207_4135" x1="29300.4" y1="1746.18" x2="29300.4" y2="1524.01" gradientUnits="userSpaceOnUse">
<stop stop-opacity="0.12"/>
<stop offset="0.55" stop-opacity="0.09"/>
<stop offset="1" stop-opacity="0.02"/>
</linearGradient>
<linearGradient id="paint4_linear_207_4135" x1="29260.3" y1="2101.29" x2="29260.3" y2="1879.11" gradientUnits="userSpaceOnUse">
<stop stop-opacity="0.12"/>
<stop offset="0.55" stop-opacity="0.09"/>
<stop offset="1" stop-opacity="0.02"/>
</linearGradient>
<linearGradient id="paint5_linear_207_4135" x1="29260.3" y1="2456.39" x2="29260.3" y2="2234.22" gradientUnits="userSpaceOnUse">
<stop stop-opacity="0.12"/>
<stop offset="0.55" stop-opacity="0.09"/>
<stop offset="1" stop-opacity="0.02"/>
</linearGradient>
<linearGradient id="paint6_linear_207_4135" x1="29260.3" y1="2811.5" x2="29260.3" y2="2589.33" gradientUnits="userSpaceOnUse">
<stop stop-opacity="0.12"/>
<stop offset="0.55" stop-opacity="0.09"/>
<stop offset="1" stop-opacity="0.02"/>
</linearGradient>
<linearGradient id="paint7_linear_207_4135" x1="29260.3" y1="3166.6" x2="29260.3" y2="2944.43" gradientUnits="userSpaceOnUse">
<stop stop-opacity="0.12"/>
<stop offset="0.55" stop-opacity="0.09"/>
<stop offset="1" stop-opacity="0.02"/>
</linearGradient>
<linearGradient id="paint8_linear_207_4135" x1="29260.3" y1="3521.71" x2="29260.3" y2="3299.54" gradientUnits="userSpaceOnUse">
<stop stop-opacity="0.12"/>
<stop offset="0.55" stop-opacity="0.09"/>
<stop offset="1" stop-opacity="0.02"/>
</linearGradient>
<linearGradient id="paint9_linear_207_4135" x1="29260.3" y1="3876.82" x2="29260.3" y2="3654.65" gradientUnits="userSpaceOnUse">
<stop stop-opacity="0.12"/>
<stop offset="0.55" stop-opacity="0.09"/>
<stop offset="1" stop-opacity="0.02"/>
</linearGradient>
<linearGradient id="paint10_linear_207_4135" x1="29260.3" y1="4231.93" x2="29260.3" y2="4009.75" gradientUnits="userSpaceOnUse">
<stop stop-opacity="0.12"/>
<stop offset="0.55" stop-opacity="0.09"/>
<stop offset="1" stop-opacity="0.02"/>
</linearGradient>
<linearGradient id="paint11_linear_207_4135" x1="29260.3" y1="36.7593" x2="29260.3" y2="36.7593" gradientUnits="userSpaceOnUse">
<stop stop-opacity="0.12"/>
<stop offset="0.55" stop-opacity="0.09"/>
<stop offset="1" stop-opacity="0.02"/>
</linearGradient>
<linearGradient id="paint12_linear_207_4135" x1="2041.41" y1="1649.89" x2="8846.34" y2="1649.89" gradientUnits="userSpaceOnUse">
<stop stop-opacity="0.12"/>
<stop offset="0.55" stop-opacity="0.09"/>
<stop offset="1" stop-opacity="0.02"/>
</linearGradient>
<linearGradient id="paint13_linear_207_4135" x1="2041.41" y1="1997.59" x2="8846.34" y2="1997.59" gradientUnits="userSpaceOnUse">
<stop stop-opacity="0.12"/>
<stop offset="0.55" stop-opacity="0.09"/>
<stop offset="1" stop-opacity="0.02"/>
</linearGradient>
<linearGradient id="paint14_linear_207_4135" x1="2041.41" y1="2345.31" x2="8846.34" y2="2345.31" gradientUnits="userSpaceOnUse">
<stop stop-opacity="0.12"/>
<stop offset="0.55" stop-opacity="0.09"/>
<stop offset="1" stop-opacity="0.02"/>
</linearGradient>
<linearGradient id="paint15_linear_207_4135" x1="2041.41" y1="2700.41" x2="8846.34" y2="2700.41" gradientUnits="userSpaceOnUse">
<stop stop-opacity="0.12"/>
<stop offset="0.55" stop-opacity="0.09"/>
<stop offset="1" stop-opacity="0.02"/>
</linearGradient>
<linearGradient id="paint16_linear_207_4135" x1="2041.41" y1="3055.51" x2="8846.34" y2="3055.51" gradientUnits="userSpaceOnUse">
<stop stop-opacity="0.12"/>
<stop offset="0.55" stop-opacity="0.09"/>
<stop offset="1" stop-opacity="0.02"/>
</linearGradient>
<linearGradient id="paint17_linear_207_4135" x1="2041.41" y1="3410.62" x2="8846.34" y2="3410.62" gradientUnits="userSpaceOnUse">
<stop stop-opacity="0.12"/>
<stop offset="0.55" stop-opacity="0.09"/>
<stop offset="1" stop-opacity="0.02"/>
</linearGradient>
<linearGradient id="paint18_linear_207_4135" x1="18554.2" y1="5982.5" x2="103173" y2="5982.5" gradientUnits="userSpaceOnUse">
<stop stop-color="#808080" stop-opacity="0.25"/>
<stop offset="0.54" stop-color="#808080" stop-opacity="0.12"/>
<stop offset="1" stop-color="#808080" stop-opacity="0.1"/>
</linearGradient>
<linearGradient id="paint19_linear_207_4135" x1="60973.3" y1="814.021" x2="60973.3" y2="462.381" gradientUnits="userSpaceOnUse">
<stop stop-color="#808080" stop-opacity="0.25"/>
<stop offset="0.54" stop-color="#808080" stop-opacity="0.12"/>
<stop offset="1" stop-color="#808080" stop-opacity="0.1"/>
</linearGradient>
<linearGradient id="paint20_linear_207_4135" x1="74222.7" y1="48765.3" x2="74222.7" y2="28122.7" gradientUnits="userSpaceOnUse">
<stop stop-color="#808080" stop-opacity="0.25"/>
<stop offset="0.54" stop-color="#808080" stop-opacity="0.12"/>
<stop offset="1" stop-color="#808080" stop-opacity="0.1"/>
</linearGradient>
<clipPath id="clip0_207_4135">
<rect width="202" height="169" fill="white"/>
</clipPath>
</defs>
</svg>
